<svg width="23" height="23" viewBox="0 0 23 23" fill="none" xmlns="http://www.w3.org/2000/svg">
<path d="M1.88267 21.1173H3.2633L17.1637 7.21692L15.7831 5.83629L1.88267 19.7367V21.1173ZM21.1487 5.86767L17.1323 1.8513L18.4502 0.533424C18.8058 0.177808 19.2451 0 19.7681 0C20.291 0 20.7303 0.177808 21.0859 0.533424L22.4666 1.91405C22.8222 2.26967 23 2.70896 23 3.23192C23 3.75489 22.8222 4.19418 22.4666 4.5498L21.1487 5.86767ZM19.8308 7.18554L4.01637 23H0V18.9836L15.8145 3.16917L19.8308 7.18554ZM16.4734 6.5266L15.7831 5.83629L17.1637 7.21692L16.4734 6.5266Z" fill="black"/>
</svg>
